<svg xmlns="http://www.w3.org/2000/svg" viewBox="0 0 256 256"><path fill="#currentcolor" d="M139.95 65.25c-13.38 4.16-25.59 7.57-39.31 4.88-6.97-1.37-14.98-5.75-19.16-11.88-11.15-16.36-1.21-34.49 15.2-42.33q9.79-4.68 20.54-3.31c8.39 1.06 17.27 5.67 20.92 13.43 4.59 9.76-.09 20.97-9.9 25.09q-11.49 4.84-21.3-1.23c-7.17-4.45-6.95-16.15 1.94-18.98 3.68-1.17 9.09-.69 10.88 3.21 1.92 4.16-2.99 7.21-6.53 5.74a1.51 1.5 89.3 0 0-1.94 2.01q1.37 3.15 5.1 3.34 9.09.46 12.62-7.45 1.94-4.35-.96-9.27c-5.08-8.63-17.78-9.17-26.4-5.76-8.66 3.41-16.42 12.76-13.77 22.56 2.75 10.12 14.58 14.28 24.18 13.83 12.58-.59 23.28-4.99 37.19-9.34 17.51-5.47 34.62-7.56 50.43.26q6.04 2.99 9.2 8.62a.67.67 0 0 1-.39.96q-.39.12-.95-.15-10.84-5.21-22.28-5.49-23.27-.58-37.95 16.81-5.6 6.63-7.07 15.01a.46.45-8.9 0 0 .66.48q11.02-5.88 22.97-8.38c30.91-6.49 57.7 9.17 64.44 40.03 6.19 28.36-8.51 56.39-27.79 76.1q-11.79 12.05-25.75 22.24-19.94 14.56-41.71 26.02c-4.24 2.23-6.35 1.92-10.71-.25q-13.53-6.74-35.8-22.04C61.8 203 37.57 180.12 29.08 150.39c-11.01-38.57 10.63-77.23 53.94-74.27 14.62 1 28.46 6.69 40.34 15.27a.42.41 25.7 0 0 .64-.22q3.7-13.24 13.71-23.23 2.29-2.27 2.42-2.42a.17.17 0 0 0-.18-.27M37.86 140.21c4.11 21.56 16.69 39.64 32.99 54.47q25.34 23.06 56.44 39.38a1.09 1.08-44.2 0 0 1.01.01q14.82-7.35 35.18-21.83 15.73-11.19 29.09-25.13c14.33-14.98 25.37-33.58 26.11-54.45q.61-16.74-6.99-28.59-9.45-14.75-29.68-17.37c-19.23-2.48-39.24 4.45-53.66 16.82a.63.63 0 0 1-.83-.01c-12.04-10.64-26.68-17.25-42.6-17.86-22.81-.88-40.74 9.18-46.64 31.85q-1.33 5.14-.74 8.13c1.7 8.54 9.61 13.38 17.91 14.17 9.33.9 19.62-3.51 22.8-12.81q2.36-6.88-.54-12.03c-4.79-8.5-16.44-8.6-20.26.89q-1.48 3.69 1.47 5.53 2.16 1.35 3.84-.64c.69-.82.55-2.02.83-2.83a1.83 1.83 0 0 1 .5-.77c2.53-2.28 6.49-.54 6.39 2.91-.4 14.17-22.49 12.58-21.31-1.8 1.25-15.24 20.34-23.1 31.3-11.61 8.36 8.77 7.42 23.07-.31 31.81q-4.92 5.56-12.83 7.93-15.58 4.69-29.19-6.34a.18.17-75.8 0 0-.28.17"/><path fill="#currentcolor" d="M197.55 151.92a.43.43 0 0 1 .13.83q-11.85 4.21-22.6-1.25c-6.74-3.43-11.32-10.12-12.76-17.79q-2.44-13.01 7.27-22.81c9.33-9.41 25.44-8.56 33.92 1.38q5.39 6.31 5.48 13.85c.09 8.03-5.63 15.38-13.72 16.9-6.59 1.24-13.74-1.69-16.74-7.7-3.31-6.64-.36-14.79 7.21-15.97q4.79-.75 7.53 2.72 1.31 1.65.46 3.12c-1.45 2.49-3.49.65-5.28.03a1.52 1.52 0 0 0-1.17.07c-8.66 4.33 5.36 17.19 12.48 6.46q2.69-4.05 1.03-8.99c-3.14-9.33-14.93-12.66-22.97-7.2q-7.44 5.05-7.52 13.97c-.12 14.01 15.11 22.17 27.25 22.38M87.42 189.2a.31.3 4.5 0 1-.37.31q-.57-.12-.74-.6-5.69-15.41 5.82-25.76c9.9-8.91 24.94-8.53 35.5-.75 8.75 6.44 13.29 18.52 8.13 28.67q-4.31 8.49-12.94 11.16c-10.12 3.14-21.65-.82-24.92-11.65-3.24-10.72 4.15-21.52 15.92-19.09 4.16.85 7.65 4.08 8.29 8.09q.71 4.43-2.6 6.96-1.8 1.37-3.83-.27a1.83 1.77 39.6 0 1-.29-2.56c1.62-1.91 1.14-3.59-1.09-4.56q-3.94-1.7-7.17 1.26c-4.59 4.19-2.8 10.66 2.17 13.52q5.68 3.27 11.86.49c8.08-3.65 10.91-13.13 6.67-20.84-6.27-11.37-22.49-12.68-32.06-4.53q-8.81 7.5-8.35 20.15"/></svg>